<?xml version="1.0" encoding="UTF-8" standalone="no"?>
<!DOCTYPE svg PUBLIC "-//W3C//DTD SVG 1.1//EN" "http://www.w3.org/Graphics/SVG/1.1/DTD/svg11.dtd">
<svg width="100%" height="100%" viewBox="0 0 250 250" version="1.1" xmlns="http://www.w3.org/2000/svg" xmlns:xlink="http://www.w3.org/1999/xlink" xml:space="preserve" xmlns:serif="http://www.serif.com/" style="fill-rule:evenodd;clip-rule:evenodd;stroke-linejoin:round;stroke-miterlimit:2;">
    <g transform="matrix(0.0336494,0,0,-0.0336494,-42.4231,132.559)">
        <path d="M4713.5,3296.7C4390.7,3255.8 3959.5,3084.2 3638.7,2869.7C3438.5,2734.8 3040,2336.4 2909.2,2138.2C2686.5,1803.1 2549.6,1449.6 2492.4,1071.6C2439.3,707.9 2508.8,-381.2 2610.9,-785.8C2700.8,-1145.4 2909.2,-1431.5 3146.2,-1519.3C3401.6,-1615.3 3534.4,-1709.3 3620.3,-1858.5C3646.9,-1903.5 3706.1,-2052.6 3753.1,-2187.5C3855.3,-2489.9 3906.3,-2565.5 4059.6,-2665.6C4466.2,-2929.2 5489.9,-2931.2 5894.5,-2669.7C6045.7,-2569.6 6100.9,-2485.8 6205.1,-2187.5C6252.1,-2052.6 6305.2,-1915.7 6321.6,-1883.1C6382.9,-1762.5 6507.5,-1654.3 6658.7,-1586.8C6918.2,-1472.4 6948.8,-1454 7055.1,-1347.7C7226.8,-1180.2 7347.3,-877.7 7408.6,-471.1C7480.1,7 7500.6,969.4 7445.4,1210.5C7322.8,1739.7 7098,2144.3 6707.8,2534.6C6452.4,2790 6254.2,2931 5951.8,3076.1C5522.6,3280.4 5126.3,3349.8 4713.5,3296.7ZM4147.5,244C4323.2,207.2 4443.8,139.8 4494.9,54C4548,-35.9 4574.6,-268.9 4550.1,-436.4C4525.6,-608 4429.5,-802.2 4323.3,-900.2C4208.9,-1002.4 4012.7,-1092.3 3865.6,-1106.6C3604.1,-1133.2 3224,-1014.7 3064.6,-855.3C2950.2,-740.9 2909.3,-640.7 2899.1,-446.6C2878.7,-56.3 3066.6,170.5 3477.4,254.2C3614.2,280.8 4000.4,276.7 4147.5,244ZM6542.3,233.8C6924.4,135.7 7079.7,-68.6 7059.3,-448.7C7053.2,-583.6 7038.9,-634.6 6991.9,-724.5C6887.7,-914.5 6660.9,-1043.3 6344.2,-1094.3C6137.8,-1129 5992.7,-1108.6 5819.1,-1020.7C5504.5,-863.4 5351.2,-538.5 5406.3,-146.2C5430.8,35.7 5465.6,99 5573.9,162.3C5769.9,276.7 6237.8,311.4 6542.3,233.8ZM5095.6,-914.6C5163,-947.3 5189.6,-998.4 5316.3,-1319.2C5434.8,-1625.7 5447.1,-1695.2 5398,-1787.1C5355.1,-1870.9 5269.3,-1899.5 5091.5,-1885.2C5009.8,-1879.1 4907.6,-1883.2 4862.6,-1891.3C4697.1,-1930.1 4529.5,-1821.8 4529.5,-1676.7C4529.5,-1609.3 4672.5,-1206.7 4756.3,-1039.2C4834,-885.9 4950.5,-843 5095.6,-914.6Z" style="fill:white;fill-rule:nonzero;"/>
    </g>
</svg>
